<?xml version="1.0" standalone="no"?>
<!DOCTYPE svg PUBLIC "-//W3C//DTD SVG 20010904//EN"
 "http://www.w3.org/TR/2001/REC-SVG-20010904/DTD/svg10.dtd">
<svg version="1.0" xmlns="http://www.w3.org/2000/svg"
 width="3020.000000pt" height="3020.000000pt" viewBox="0 0 3020.000000 3020.000000"
 preserveAspectRatio="xMidYMid meet">
  <style>
    g {
      fill: black;
    }
    @media (prefers-color-scheme: dark) {
      g {
        fill: white;
      }
    }
  </style>
  <g transform="translate(0.000000,3020.000000) scale(0.100000,-0.100000)"
   stroke="none">
  <path d="M23969 29683 c-9 -10 -30 -54 -48 -98 -58 -139 -58 -140 -130 -173
  -36 -17 -110 -45 -165 -62 -116 -37 -146 -61 -146 -117 0 -21 -11 -71 -24
  -113 -13 -41 -30 -95 -36 -120 -7 -25 -18 -63 -25 -85 -7 -22 -20 -69 -30
  -105 -30 -110 -66 -213 -91 -257 -128 -230 -148 -261 -309 -478 -62 -82 -131
  -179 -155 -215 -40 -60 -132 -177 -292 -372 -35 -42 -81 -112 -101 -155 -21
  -43 -41 -85 -46 -93 -4 -8 -69 -60 -143 -115 -75 -55 -171 -128 -215 -162
  -117 -93 -321 -243 -349 -255 -23 -11 -34 -2 -181 143 -87 85 -175 176 -196
  202 -21 27 -75 73 -120 102 -92 60 -133 95 -165 142 -23 32 -84 84 -250 211
  -53 40 -109 89 -126 108 -22 25 -42 37 -65 40 -45 5 -62 22 -121 119 -27 44
  -73 105 -102 135 -92 96 -280 271 -302 282 -12 5 -52 52 -90 103 -38 51 -100
  127 -137 167 -38 40 -82 100 -98 133 -32 67 -58 94 -114 120 -21 10 -54 37
  -73 60 -35 43 -69 60 -98 49 -30 -11 -35 -37 -19 -87 17 -51 12 -129 -22 -362
  -50 -342 -43 -612 18 -731 8 -16 34 -98 57 -183 47 -175 69 -236 133 -371 61
  -130 97 -219 157 -395 29 -82 69 -199 90 -260 21 -60 50 -155 64 -210 22 -87
  75 -246 221 -664 20 -57 49 -154 66 -215 16 -61 41 -151 54 -201 80 -295 137
  -577 151 -755 4 -47 10 -89 14 -95 4 -5 10 -37 13 -70 3 -33 10 -89 15 -125 6
  -36 15 -157 22 -270 6 -113 15 -266 21 -341 12 -178 12 -497 -1 -631 -7 -73
  -7 -173 0 -310 10 -197 15 -253 45 -443 8 -49 21 -137 30 -195 8 -58 19 -132
  25 -165 5 -33 17 -123 25 -200 8 -77 17 -158 20 -180 27 -206 37 -303 45 -440
  6 -88 14 -189 20 -225 5 -36 10 -105 10 -155 0 -49 7 -115 16 -145 12 -46 15
  -141 15 -590 0 -501 7 -691 36 -988 3 -29 0 -65 -6 -80 -7 -17 -15 -167 -21
  -387 -5 -198 -14 -443 -20 -545 -11 -189 -10 -349 8 -875 7 -213 15 -317 26
  -360 20 -74 20 -121 1 -176 -9 -24 -13 -50 -10 -59 4 -8 11 -181 16 -385 5
  -203 17 -512 25 -685 21 -406 22 -543 7 -716 -18 -197 -17 -815 1 -986 34
  -319 40 -440 27 -591 -13 -144 -10 -214 20 -487 6 -58 9 -374 7 -815 -2 -557
  1 -731 10 -770 28 -107 53 -878 31 -930 -10 -22 -15 -142 -20 -440 -4 -225
  -10 -531 -14 -680 -6 -228 -4 -279 9 -328 12 -47 14 -91 10 -220 -6 -142 -9
  -167 -28 -202 -24 -43 -46 -137 -71 -305 -16 -103 -35 -186 -58 -245 -21 -52
  -362 -728 -390 -773 -15 -23 -44 -60 -63 -82 -46 -51 -49 -94 -8 -126 16 -13
  43 -34 59 -47 17 -14 57 -38 90 -55 33 -16 77 -42 98 -56 21 -14 72 -45 114
  -68 42 -23 92 -59 111 -80 19 -21 38 -38 43 -38 4 0 55 -31 111 -68 57 -38
  153 -100 213 -137 61 -38 134 -89 163 -112 29 -24 99 -74 155 -112 144 -97
  401 -313 541 -455 66 -67 172 -184 236 -261 65 -77 128 -149 140 -160 70 -63
  186 -294 265 -530 14 -44 40 -113 57 -153 34 -80 57 -92 95 -49 34 37 269 372
  333 475 34 53 108 169 166 257 58 88 137 223 175 300 39 77 80 151 93 165 12
  14 47 59 77 100 96 133 228 280 459 510 233 234 565 553 635 610 22 19 69 61
  105 96 96 91 278 245 335 283 28 19 69 52 93 74 77 75 53 141 -77 211 l-65 34
  -63 123 c-35 68 -84 156 -108 194 -55 88 -253 496 -289 594 -8 20 -42 108 -76
  196 -162 416 -222 607 -306 965 -22 91 -30 126 -48 195 -19 72 -40 178 -80
  405 -30 168 -68 421 -106 705 -42 312 -74 517 -105 680 -25 131 -34 220 -40
  380 -3 88 -10 246 -15 350 -5 105 -9 304 -10 444 0 140 -4 305 -10 365 -24
  274 -33 403 -40 576 -4 102 -15 365 -24 585 -9 220 -21 578 -26 795 -5 217
  -15 535 -22 705 -7 171 -13 578 -13 905 0 492 3 630 18 800 26 290 37 636 36
  1065 -2 318 1 380 15 440 19 75 141 316 314 615 30 52 66 115 80 140 14 25 66
  106 116 180 50 75 117 184 149 243 33 59 62 107 67 107 21 0 460 -327 605
  -450 91 -77 450 -343 560 -414 70 -46 176 -152 283 -286 42 -52 112 -132 155
  -177 84 -87 230 -276 287 -369 46 -77 50 -124 36 -434 -14 -324 -14 -784 2
  -1055 6 -115 16 -302 21 -415 6 -113 15 -236 20 -275 6 -38 15 -232 21 -430 6
  -198 15 -403 20 -455 15 -150 30 -262 36 -271 6 -11 21 -134 34 -276 4 -56 11
  -107 15 -113 7 -11 17 -162 35 -515 5 -110 12 -212 15 -226 3 -15 11 -96 16
  -180 12 -181 14 -212 34 -384 8 -71 19 -182 25 -245 6 -63 15 -169 21 -235 24
  -248 28 -327 35 -585 4 -168 2 -377 -6 -570 -12 -309 -4 -652 21 -855 5 -44
  14 -123 19 -175 5 -52 17 -167 26 -255 10 -103 19 -328 24 -630 8 -440 14
  -547 50 -850 5 -49 14 -108 20 -130 12 -52 12 -140 -1 -190 -6 -22 -14 -76
  -19 -120 -5 -44 -14 -123 -20 -175 -15 -132 -28 -1183 -22 -1721 5 -465 5
  -456 -38 -669 -5 -25 -16 -76 -24 -115 -8 -38 -22 -108 -30 -155 -9 -47 -21
  -107 -26 -135 -13 -65 -34 -193 -55 -325 -15 -99 -34 -210 -55 -325 -5 -27
  -12 -72 -16 -100 -24 -190 -32 -221 -118 -424 -68 -161 -105 -230 -202 -376
  -84 -126 -103 -148 -277 -309 -166 -154 -290 -308 -391 -486 -27 -47 -74 -121
  -105 -165 -123 -173 -290 -460 -342 -585 -29 -70 -57 -109 -160 -221 -104
  -113 -198 -246 -257 -364 -24 -49 -69 -123 -99 -162 -77 -102 -93 -149 -93
  -278 0 -73 4 -113 14 -128 11 -18 13 -73 6 -326 -5 -186 -4 -315 2 -335 5 -17
  9 -53 9 -81 -1 -108 24 -138 45 -54 5 24 20 67 33 94 12 28 27 64 34 80 7 17
  34 73 61 125 157 307 203 391 241 440 22 30 84 116 135 190 336 481 403 558
  647 735 81 60 218 165 303 235 85 69 205 164 265 210 61 46 137 107 170 135
  33 29 130 104 215 167 242 180 469 395 587 556 31 42 88 110 126 151 77 84
  213 269 302 411 33 52 92 142 131 200 39 58 106 166 149 240 43 74 81 140 85
  145 8 10 45 79 99 180 18 33 42 76 53 95 44 76 98 189 123 260 49 140 83 245
  90 280 4 19 28 98 52 175 90 280 128 408 163 540 5 17 22 82 39 145 16 63 37
  140 46 170 21 72 44 171 55 240 5 30 16 94 25 143 8 48 22 126 30 175 9 48 20
  112 25 142 15 93 59 352 69 405 6 28 17 93 26 145 9 52 21 120 27 150 6 30 14
  120 18 200 5 80 15 192 24 250 9 58 20 137 26 177 5 40 12 82 15 95 5 23 12
  71 40 283 39 301 47 363 51 405 3 25 11 104 19 175 8 72 19 173 25 225 6 52
  13 268 16 480 6 376 -1 549 -28 745 -6 44 -15 152 -19 240 -5 88 -13 194 -18
  235 -5 41 -10 147 -10 235 -1 106 -6 185 -17 235 -19 88 -21 106 -34 305 -24
  357 -44 1582 -31 1923 4 98 2 114 -13 125 -16 12 -16 28 -1 302 24 436 34 575
  45 615 11 39 13 155 4 212 -4 24 -13 38 -25 41 -18 5 -19 20 -18 309 0 166 4
  353 9 413 6 61 14 205 19 320 10 215 24 371 42 460 6 28 14 124 19 215 6 91
  13 219 17 285 5 98 11 129 30 167 13 26 26 71 29 100 2 29 9 98 15 153 5 55
  14 186 19 290 9 167 28 379 44 470 3 17 12 82 21 145 35 254 47 328 61 390 18
  74 72 247 114 365 55 152 129 380 134 415 7 40 67 113 226 275 113 115 176
  207 186 271 6 43 5 46 -32 79 -22 19 -48 34 -60 35 -11 0 -66 -18 -122 -40
  -110 -44 -133 -47 -189 -26 -21 7 -65 21 -98 30 -113 33 -436 154 -559 211
  -39 18 -96 43 -126 56 -81 34 -343 169 -437 225 -45 27 -169 107 -275 178
  -514 345 -677 493 -704 641 -15 85 -52 125 -118 125 -73 0 -189 39 -232 78
  -21 20 -64 59 -94 86 -30 28 -96 87 -145 131 -251 223 -411 386 -544 553 -41
  51 -87 100 -103 108 -26 14 -35 13 -81 -2 -45 -14 -70 -35 -177 -144 -69 -70
  -159 -156 -200 -191 -41 -34 -156 -144 -255 -244 -173 -174 -290 -270 -390
  -319 -22 -11 -92 -73 -155 -138 -206 -213 -495 -502 -548 -548 -48 -43 -51
  -48 -45 -82 4 -30 -1 -48 -27 -95 -18 -32 -42 -74 -53 -93 -47 -85 -71 -126
  -79 -137 -6 -8 -22 3 -51 35 -23 26 -45 49 -48 52 -12 10 -29 49 -29 69 0 35
  -48 78 -143 126 -214 109 -349 190 -358 213 -14 38 -11 185 6 232 23 65 19
  153 -25 595 -5 55 -17 181 -25 280 -9 99 -20 208 -25 241 -13 80 -13 145 1
  241 15 106 -11 645 -51 1068 -5 55 -12 143 -16 195 -4 54 -14 115 -25 143 -15
  38 -19 74 -19 175 0 116 -14 296 -41 507 -5 44 -14 154 -20 245 -34 587 -35
  699 -6 815 24 96 38 200 47 355 25 406 31 490 40 550 32 210 40 286 39 380 -2
  82 5 137 29 255 17 83 38 191 47 240 9 50 21 106 25 125 29 119 44 173 64 235
  60 182 79 263 96 405 6 52 22 136 35 185 13 50 26 113 30 140 6 47 21 96 82
  285 13 41 29 111 34 155 9 75 14 106 37 214 6 25 7 53 3 63 -7 18 -7 18 -22 1z
  m2968 -22665 c-2 -18 -4 -4 -4 32 0 36 2 50 4 33 2 -18 2 -48 0 -65z"/>
  <path d="M12325 29460 c-78 -32 -152 -211 -215 -520 -20 -97 -43 -206 -105
  -495 -41 -196 -54 -244 -90 -338 -67 -171 -164 -313 -268 -389 -49 -36 -168
  -169 -263 -293 -17 -22 -96 -136 -174 -253 -134 -200 -248 -344 -387 -492 -53
  -56 -64 -63 -112 -71 -49 -7 -58 -14 -122 -81 -69 -72 -69 -73 -64 -118 4 -29
  0 -61 -9 -89 -45 -125 -86 -395 -86 -563 0 -49 -3 -88 -7 -88 -5 0 -27 37 -51
  83 -43 82 -109 177 -252 362 -41 54 -129 167 -195 252 -66 86 -169 208 -230
  272 -60 64 -137 148 -170 186 -33 39 -63 72 -66 75 -25 22 -148 183 -199 260
  -92 138 -128 178 -272 303 -157 135 -190 158 -239 164 -32 5 -39 2 -54 -21
  -23 -35 -14 -98 35 -251 21 -66 53 -174 70 -240 70 -267 85 -316 116 -390 21
  -50 40 -121 98 -350 30 -121 64 -256 77 -300 49 -180 58 -217 79 -317 12 -56
  41 -164 65 -238 29 -91 52 -192 70 -310 15 -96 31 -191 36 -210 15 -61 37
  -441 44 -740 7 -319 21 -600 35 -705 43 -316 60 -491 60 -619 0 -49 7 -164 15
  -256 17 -186 21 -454 18 -1280 -1 -311 1 -651 6 -757 5 -105 5 -260 1 -344 -8
  -175 4 -760 19 -929 6 -63 16 -252 22 -420 11 -300 10 -308 -14 -515 -46 -376
  -50 -442 -53 -905 -2 -425 -7 -538 -34 -845 -15 -171 -28 -583 -40 -1230 -6
  -308 -15 -650 -21 -760 -13 -221 -7 -667 10 -731 6 -22 17 -115 26 -205 8 -90
  22 -218 30 -284 8 -66 22 -176 30 -245 8 -69 20 -152 26 -185 7 -42 7 -110 0
  -230 -6 -93 -16 -417 -21 -720 -11 -641 -24 -869 -70 -1195 -5 -36 -17 -141
  -25 -235 -8 -93 -20 -210 -25 -260 -18 -176 -21 -223 -30 -490 -6 -164 -15
  -301 -25 -350 -8 -44 -19 -107 -24 -140 -5 -33 -19 -120 -30 -194 -12 -73 -21
  -179 -21 -235 0 -130 -48 -539 -75 -644 -8 -31 -15 -68 -15 -82 0 -38 -35
  -144 -61 -187 -66 -106 -383 -461 -499 -557 -115 -96 -180 -172 -180 -209 1
  -44 25 -71 93 -101 65 -28 306 -215 492 -381 288 -257 600 -478 1217 -866 126
  -79 163 -107 211 -164 67 -80 70 -100 28 -183 -25 -50 -69 -97 -164 -178 -30
  -26 -18 -57 29 -70 22 -6 54 -18 70 -27 16 -8 51 -18 78 -22 27 -3 72 -17 100
  -30 28 -12 103 -43 166 -68 162 -63 314 -133 374 -171 47 -30 259 -205 381
  -314 28 -25 104 -81 170 -125 66 -43 149 -103 185 -131 145 -116 290 -194 421
  -227 52 -14 103 -35 142 -60 87 -57 142 -71 292 -76 150 -6 283 16 382 62 32
  15 90 35 130 45 88 23 131 45 210 107 34 26 97 76 140 109 83 66 167 150 358
  362 66 73 161 178 210 232 50 55 137 137 195 183 58 46 155 131 215 188 107
  101 196 176 319 269 33 25 98 79 145 120 47 41 128 111 181 156 107 90 660
  638 763 756 76 86 233 208 428 331 68 43 201 132 294 198 193 136 223 153 390
  219 66 27 147 61 180 76 61 29 84 31 227 24 70 -3 115 20 141 71 16 33 16 40
  2 85 -8 27 -15 67 -15 89 0 22 -12 92 -26 155 -25 111 -26 128 -28 480 -2 301
  -5 384 -20 474 -18 100 -18 121 -5 285 8 97 14 235 14 306 0 187 -24 948 -37
  1165 -14 246 -14 239 11 364 19 101 21 142 21 510 1 470 15 1070 30 1241 22
  253 32 345 55 485 33 200 50 377 48 490 -14 564 -13 945 1 1185 13 210 14 306
  6 494 -7 161 -7 257 0 308 5 41 10 102 10 136 0 34 7 130 15 212 8 83 19 200
  25 260 5 61 12 391 15 735 9 880 23 1256 55 1417 6 32 22 103 35 158 13 55 26
  132 30 170 3 39 13 117 22 175 9 61 13 135 10 180 -2 41 2 136 9 210 7 74 14
  164 14 199 0 35 7 103 17 151 16 84 14 120 -6 120 -12 0 -64 -75 -110 -161
  -52 -95 -125 -209 -134 -209 -15 0 -286 194 -397 284 -41 33 -108 92 -149 129
  -40 37 -95 82 -121 100 -26 18 -109 84 -184 147 -142 119 -171 142 -394 313
  -74 56 -202 157 -285 225 -84 68 -195 155 -247 194 -52 39 -117 92 -145 118
  -27 26 -63 57 -80 69 -28 21 -111 98 -368 339 -133 126 -211 158 -250 102 -6
  -9 -48 -39 -92 -65 -111 -67 -219 -140 -292 -196 -34 -27 -122 -88 -195 -136
  -73 -48 -155 -103 -183 -123 -27 -20 -81 -54 -120 -75 -68 -37 -266 -167 -491
  -323 -116 -80 -212 -156 -323 -255 -77 -70 -70 -70 -235 2 -110 48 -120 50
  -277 66 -90 10 -176 23 -191 31 -14 7 -63 45 -108 84 -103 89 -156 125 -235
  161 -77 35 -94 58 -105 141 -5 35 -14 92 -20 128 -34 206 -33 195 -10 266 28
  82 27 96 -30 454 -7 41 -16 143 -21 225 -4 83 -13 188 -18 235 -5 47 -15 281
  -20 520 -6 239 -16 512 -22 605 -15 213 -7 655 17 940 12 144 18 326 19 580 1
  204 7 438 13 520 13 173 39 433 48 480 3 18 9 153 14 301 5 148 16 321 24 385
  24 181 39 344 42 464 2 61 8 157 14 215 29 293 55 539 70 665 48 395 59 505
  72 755 22 394 12 790 -20 862 -18 39 -24 42 -57 28z m800 -10216 c22 -8 72
  -25 111 -38 115 -38 114 -37 114 -111 0 -52 -4 -68 -24 -92 -13 -15 -26 -38
  -30 -49 -10 -31 13 -73 43 -81 14 -3 55 -27 91 -53 79 -58 100 -68 217 -109
  51 -18 126 -52 167 -75 41 -23 186 -84 322 -135 272 -102 294 -112 385 -171
  63 -40 179 -90 262 -110 69 -18 74 -28 53 -113 -9 -40 -21 -90 -26 -112 -18
  -76 -39 -230 -44 -325 -3 -52 -10 -111 -17 -130 -23 -75 -6 -785 26 -1084 11
  -104 19 -136 38 -165 l24 -36 6 -445 c4 -245 12 -530 17 -635 12 -207 14 -974
  5 -1700 -6 -508 0 -630 46 -915 5 -30 15 -113 23 -185 8 -71 24 -195 37 -275
  21 -139 21 -155 10 -375 -15 -295 -14 -395 5 -530 8 -60 19 -162 24 -225 5
  -63 12 -132 15 -153 12 -85 30 -547 30 -777 0 -193 -4 -269 -19 -360 -18 -105
  -19 -162 -16 -680 6 -859 3 -1267 -8 -1353 -9 -71 -14 -83 -61 -145 -74 -97
  -163 -184 -267 -263 -169 -127 -226 -143 -389 -110 -246 50 -407 101 -453 143
  -31 29 -138 171 -158 209 -9 18 -14 51 -13 82 2 53 -32 149 -62 174 -17 13
  -66 32 -344 128 -262 91 -277 97 -460 185 -179 86 -240 114 -320 149 -33 14
  -69 31 -79 38 -21 12 -20 9 -45 273 -12 125 1 466 24 645 18 132 19 147 40
  481 17 265 20 820 5 960 -5 52 -15 138 -20 192 -6 53 -13 230 -15 392 -3 162
  -7 311 -10 330 -5 37 -19 391 -35 913 -5 175 -14 357 -20 405 -5 48 -11 350
  -14 672 -2 345 -8 610 -15 645 -5 33 -12 254 -15 490 -3 237 -11 552 -18 700
  -7 149 -12 357 -10 463 2 137 -2 215 -12 270 -12 63 -13 116 -5 297 6 121 13
  294 16 385 9 264 6 915 -4 1040 -13 151 1 875 18 928 19 61 86 166 159 250 99
  114 150 142 490 268 74 27 146 30 205 8z"/>
  <path d="M26294 27096 c-7 -28 2 -49 17 -41 12 8 12 52 -1 60 -5 3 -12 -5 -16
  -19z"/>
  <path d="M5575 24064 c-74 -31 -251 -81 -505 -145 -146 -36 -216 -59 -277 -90
  l-82 -42 -31 27 c-17 14 -42 26 -55 26 -34 0 -176 -73 -206 -107 -34 -37 -38
  -50 -104 -318 -41 -165 -67 -251 -94 -305 -20 -41 -50 -118 -66 -170 -40 -129
  -193 -580 -243 -715 -37 -103 -154 -380 -357 -850 -47 -110 -97 -236 -112
  -279 -26 -81 -146 -302 -236 -436 -105 -156 -295 -400 -527 -676 -130 -155
  -560 -469 -918 -671 -191 -107 -218 -126 -254 -173 -24 -33 -70 -67 -163 -124
  -196 -120 -301 -181 -398 -234 -191 -102 -337 -187 -457 -266 -69 -46 -171
  -113 -227 -150 -193 -126 -251 -198 -223 -280 17 -52 56 -75 147 -86 183 -22
  391 -33 753 -40 261 -6 419 -13 490 -24 58 -8 153 -16 212 -16 191 0 548 -63
  567 -99 5 -9 12 -53 15 -99 4 -46 18 -120 32 -165 13 -45 24 -92 24 -104 0
  -13 7 -58 15 -100 70 -370 91 -566 85 -818 -2 -121 -4 -418 -5 -660 0 -401 2
  -446 19 -508 14 -50 17 -86 13 -135 -3 -37 -11 -125 -17 -197 -6 -71 -15 -143
  -20 -160 -23 -78 -42 -1450 -25 -1855 4 -99 1 -256 -9 -435 -9 -154 -20 -372
  -26 -485 -19 -369 -47 -840 -66 -1080 -3 -47 -2 -103 3 -125 12 -48 -1 -803
  -17 -1045 -18 -284 -47 -474 -95 -630 -14 -47 -32 -107 -40 -135 -7 -27 -28
  -99 -45 -160 -18 -60 -36 -123 -40 -140 -37 -139 -71 -229 -139 -360 -43 -82
  -108 -226 -145 -320 -78 -199 -77 -197 -178 -344 -93 -134 -117 -159 -194
  -205 -33 -19 -95 -64 -138 -101 -108 -90 -113 -93 -269 -174 -77 -39 -154 -84
  -173 -100 -18 -17 -53 -35 -76 -41 -24 -6 -73 -26 -109 -45 -58 -31 -76 -35
  -138 -35 -146 0 -235 -78 -211 -185 15 -66 73 -107 169 -119 29 -4 95 -23 145
  -42 53 -20 126 -39 176 -45 47 -6 117 -22 155 -36 251 -91 486 -168 585 -193
  160 -40 156 -39 342 -129 92 -45 218 -100 280 -121 213 -75 451 -207 728 -401
  59 -42 135 -93 167 -112 32 -20 90 -64 128 -98 39 -34 104 -87 145 -117 41
  -30 100 -78 131 -106 30 -28 83 -75 117 -104 34 -29 105 -103 159 -165 54 -61
  127 -141 163 -177 96 -97 186 -213 227 -293 19 -39 45 -87 58 -106 12 -20 41
  -88 64 -151 65 -176 71 -190 124 -270 66 -100 84 -119 135 -142 40 -18 45 -18
  102 -2 77 22 134 70 166 143 26 58 71 122 163 232 61 72 257 341 354 486 34
  51 116 159 182 240 106 130 238 314 416 578 29 44 108 170 175 280 236 388
  280 456 335 526 31 39 79 115 109 169 36 69 71 117 112 157 33 32 92 99 132
  148 78 95 503 513 621 610 75 61 195 197 226 257 23 46 29 163 9 195 -19 30
  -53 36 -96 18 -20 -8 -46 -15 -58 -15 -31 0 -166 -47 -207 -73 -158 -96 -203
  -121 -274 -148 -161 -61 -310 -88 -530 -94 -96 -2 -189 -11 -260 -25 -209 -40
  -241 -43 -475 -41 -368 2 -480 29 -693 166 -72 46 -125 90 -179 149 l-78 84
  -12 239 -11 239 26 57 c29 63 128 216 158 243 39 36 25 68 -83 184 -52 57 -79
  94 -82 115 -9 57 -20 400 -23 710 -2 171 -4 339 -5 375 -1 36 6 112 16 170 19
  112 18 174 -4 470 -8 100 -10 222 -5 345 4 105 8 273 8 375 0 269 -21 880 -32
  930 -15 68 11 876 39 1190 18 203 21 397 13 755 -8 359 3 818 27 1100 7 77 12
  169 12 205 0 36 7 81 15 100 54 126 67 220 83 605 18 449 33 605 81 885 24
  136 39 169 125 275 36 44 79 101 95 126 44 69 88 88 332 145 97 22 135 37 214
  82 l95 54 142 9 c133 8 217 16 431 39 50 6 169 15 265 20 96 5 211 13 255 19
  270 36 365 40 820 39 439 -1 463 0 505 19 56 25 70 42 77 92 4 29 0 51 -14 78
  -33 62 -72 248 -83 393 -16 213 -13 615 5 674 40 132 -3 261 -101 302 -45 19
  -74 18 -136 -6 -44 -17 -78 -20 -198 -20 -80 0 -199 -7 -265 -15 -177 -23
  -588 -30 -786 -15 -90 7 -292 13 -449 15 -251 2 -295 4 -365 22 -44 12 -97 24
  -118 28 -61 10 -85 25 -103 64 -9 20 -31 56 -49 81 -36 50 -74 130 -98 205
  -24 77 -31 422 -12 610 9 83 20 283 25 445 14 423 23 563 60 875 11 94 25 215
  31 270 10 101 31 256 50 375 18 108 59 390 69 475 6 44 13 87 15 95 2 8 14 76
  26 150 16 99 23 208 29 410 8 307 5 325 -52 360 -44 27 -100 25 -173 -6z"/>
  </g>
</svg>
